<svg xmlns="http://www.w3.org/2000/svg" viewBox="0 0 440 232" width="440" height="232" role="img" aria-label="PUDDING INFERNO">
  <defs>
    <radialGradient id="pi-bg" cx="50%" cy="44%" r="78%">
      <stop offset="0%" stop-color="#5C2A2A"/>
      <stop offset="58%" stop-color="#3B1A1A"/>
      <stop offset="100%" stop-color="#0F0808"/>
    </radialGradient>
    <linearGradient id="pi-hot" x1="0" y1="0" x2="0" y2="1">
      <stop offset="0%" stop-color="#FF8C00"/>
      <stop offset="100%" stop-color="#CC2200"/>
    </linearGradient>
    <radialGradient id="pi-vig" cx="50%" cy="50%" r="72%">
      <stop offset="62%" stop-color="#000000" stop-opacity="0"/>
      <stop offset="100%" stop-color="#000000" stop-opacity="0.55"/>
    </radialGradient>
  </defs>
  <rect width="440" height="232" fill="url(#pi-bg)"/>
  <!-- 肉壁の薄いグリッド（マス目移動の世界観） -->
  <g stroke="#8B4040" stroke-opacity="0.16" stroke-width="1">
    <path d="M40 0V232 M80 0V232 M120 0V232 M160 0V232 M200 0V232 M240 0V232 M280 0V232 M320 0V232 M360 0V232 M400 0V232"/>
    <path d="M0 40H440 M0 80H440 M0 120H440 M0 160H440 M0 200H440"/>
  </g>
  <!-- 灼熱マスの気配 -->
  <rect x="82" y="42" width="36" height="36" fill="#FF4500" opacity="0.20"/>
  <rect x="322" y="162" width="36" height="36" fill="#FF4500" opacity="0.16"/>
  <!-- タイトル -->
  <text x="220" y="86" text-anchor="middle" font-family="sans-serif" font-weight="700" font-size="40" letter-spacing="2" fill="#F5C842">PUDDING</text>
  <text x="220" y="132" text-anchor="middle" font-family="sans-serif" font-weight="700" font-size="46" letter-spacing="3" fill="url(#pi-hot)">INFERNO</text>
  <!-- プリンくん -->
  <g transform="translate(220,184)">
    <ellipse cx="0" cy="20" rx="34" ry="7" fill="#000000" opacity="0.35"/>
    <path d="M-30 14 L30 14 L23 -14 L-23 -14 Z" fill="#F5C842"/>
    <path d="M-23 -14 L23 -14 L19 -22 Q0 -30 -19 -22 Z" fill="#C8922A"/>
    <circle cx="0" cy="-26" r="5.5" fill="#CC2200"/>
    <circle cx="-9" cy="-2" r="3.2" fill="#3B1A1A"/>
    <circle cx="9" cy="-2" r="3.2" fill="#3B1A1A"/>
  </g>
  <rect width="440" height="232" fill="url(#pi-vig)"/>
</svg>
